# ProBuilder 6.0.6
# https://unity3d.com/unity/features/worldbuilding/probuilder
# 14/06/2026 2:47:37 p.m.

mtllib ./Hexagon.mtl
o Hexagon

g Hexagon
v -0.5 -0.05 0
v -0.5 0.05 0
v -0.25 -0.05 0.4330127
v -0.25 0.05 0.4330127
v 0.25 -0.05 0.4330127
v 0.25 0.05 0.4330127
v 0.5 -0.05 -4.371139E-08
v 0.5 0.05 -4.371139E-08
v 0.25 -0.05 -0.4330127
v 0.25 0.05 -0.4330127
v -0.25 -0.05 -0.4330127
v -0.25 0.05 -0.4330127
v 0 0.05 0

vt -0.25 -0.05
vt -0.25 0.05
vt 0.25 -0.05
vt 0.25 0.05
vt -0.25 -0.05
vt -0.25 0.05
vt 0.25 -0.05
vt 0.25 0.05
vt 0.5 0
vt 0 0
vt 0.25 0.4330127
vt -0.25 0.4330127
vt -0.5 -4.371139E-08
vt -0.25 -0.4330127
vt 0.25 -0.4330127

vn -1 0 -5.161914E-08
vn -0.5 0 0.8660254
vn 0.5000001 0 0.8660254
vn 1 0 -1.032383E-07
vn 0.5 0 -0.8660254
vn -0.5 0 -0.8660254
vn 0 1 0

usemtl Hexagon_Default
f 4/11/7 13/10/7 2/9/7
f 6/12/7 13/10/7 4/11/7
f 8/13/7 13/10/7 6/12/7
f 10/14/7 13/10/7 8/13/7
f 12/15/7 13/10/7 10/14/7
f 2/9/7 13/10/7 12/15/7
f 4/4/2 2/2/1 1/1/1
f 1/1/1 3/3/2 4/4/2
f 6/4/3 4/6/2 3/5/2
f 3/5/2 5/3/3 6/4/3
f 8/4/4 6/6/3 5/5/3
f 5/5/3 7/3/4 8/4/4
f 10/4/5 8/6/4 7/5/4
f 7/5/4 9/3/5 10/4/5
f 12/8/6 10/2/5 9/1/5
f 9/1/5 11/7/6 12/8/6
f 2/4/1 12/6/6 11/5/6
f 11/5/6 1/3/1 2/4/1

