# ProBuilder 6.0.6
# https://unity3d.com/unity/features/worldbuilding/probuilder
# 27/06/2026 11:30:11 p.m.

mtllib ./HexagonGalaxy.mtl
o HexagonGalaxy

g Hexagon
v -0.5 -0.05 0
v -0.5 0.05 0
v -0.25 -0.05 0.4330127
v -0.25 0.05 0.4330127
v 0.25 -0.05 0.4330127
v 0.25 0.05 0.4330127
v 0.5 -0.05 -4.371139E-08
v 0.5 0.05 -4.371139E-08
v 0.25 -0.05 -0.4330127
v 0.25 0.05 -0.4330127
v -0.25 -0.05 -0.4330127
v -0.25 0.05 -0.4330127

vt -0.25 -0.05
vt -0.25 0.05
vt 0.25 -0.05
vt 0.25 0.05
vt 0.25 -0.05
vt 0.25 0.05

vn -1 0 -5.161914E-08
vn -0.5 0 0.8660254
vn 0.5000001 0 0.8660254
vn 1 0 -1.032383E-07
vn 0.5 0 -0.8660254
vn -0.5 0 -0.8660254

usemtl Hexagon_Default
f 3/3/2 4/4/2 2/2/1 1/1/1
f 5/3/3 6/4/3 4/2/2 3/1/2
f 7/3/4 8/4/4 6/2/3 5/1/3
f 9/3/5 10/4/5 8/2/4 7/1/4
f 11/5/6 12/6/6 10/2/5 9/1/5
f 1/3/1 2/4/1 12/2/6 11/1/6

